<mxfile host="drawio-plugin" modified="2024-01-17T18:27:06.661Z" agent="5.0 (Windows NT 6.2; Win64; x64) AppleWebKit/537.36 (KHTML, like Gecko) Chrome/104.0.5112.102 Safari/537.36" etag="KxEzSt0EO3UiBWmtfUrX" version="20.5.3" type="embed"><diagram id="5zd74sJaEZs0zRxZUe7q" name="Page-1"><mxGraphModel dx="1041" dy="963" grid="0" gridSize="10" guides="1" tooltips="1" connect="1" arrows="1" fold="1" page="0" pageScale="1" pageWidth="850" pageHeight="1100" math="0" shadow="0"><root><mxCell id="0"/><mxCell id="1" parent="0"/><mxCell id="4" style="edgeStyle=orthogonalEdgeStyle;rounded=0;orthogonalLoop=1;jettySize=auto;html=1;exitX=1;exitY=0.5;exitDx=0;exitDy=0;entryX=0;entryY=0.5;entryDx=0;entryDy=0;" edge="1" parent="1" source="2" target="3"><mxGeometry relative="1" as="geometry"/></mxCell><mxCell id="2" value="&lt;b&gt;start programm&lt;/b&gt;" style="ellipse;whiteSpace=wrap;html=1;aspect=fixed;fillColor=#008a00;fontColor=#ffffff;strokeColor=#005700;" vertex="1" parent="1"><mxGeometry x="-375" y="-178" width="70" height="70" as="geometry"/></mxCell><mxCell id="18" style="edgeStyle=orthogonalEdgeStyle;rounded=0;orthogonalLoop=1;jettySize=auto;html=1;exitX=1;exitY=0.5;exitDx=0;exitDy=0;entryX=0;entryY=0.5;entryDx=0;entryDy=0;" edge="1" parent="1" source="3" target="7"><mxGeometry relative="1" as="geometry"/></mxCell><mxCell id="3" value="&lt;b&gt;new Man()&lt;/b&gt;" style="rounded=1;whiteSpace=wrap;html=1;fillColor=#4D4D4D;" vertex="1" parent="1"><mxGeometry x="-273" y="-160" width="86" height="34" as="geometry"/></mxCell><mxCell id="5" value="&lt;b&gt;-Set&lt;/b&gt;" style="whiteSpace=wrap;html=1;fillColor=#008a00;rounded=1;fontColor=#ffffff;strokeColor=#005700;" vertex="1" parent="1"><mxGeometry x="-273" y="-126" width="86" height="20" as="geometry"/></mxCell><mxCell id="20" style="edgeStyle=orthogonalEdgeStyle;rounded=0;orthogonalLoop=1;jettySize=auto;html=1;exitX=1;exitY=0.5;exitDx=0;exitDy=0;entryX=0;entryY=0.5;entryDx=0;entryDy=0;" edge="1" parent="1" source="7" target="10"><mxGeometry relative="1" as="geometry"/></mxCell><mxCell id="7" value="&lt;b&gt;convertToJSON(man) new StringBuilder&lt;/b&gt;" style="whiteSpace=wrap;html=1;fillColor=#4D4D4D;rounded=1;fontColor=#ffffff;strokeColor=#FFFFFF;" vertex="1" parent="1"><mxGeometry x="-120" y="-168" width="145" height="50" as="geometry"/></mxCell><mxCell id="22" style="edgeStyle=orthogonalEdgeStyle;rounded=0;orthogonalLoop=1;jettySize=auto;html=1;exitX=0.5;exitY=1;exitDx=0;exitDy=0;entryX=0.5;entryY=0;entryDx=0;entryDy=0;" edge="1" parent="1" source="10" target="21"><mxGeometry relative="1" as="geometry"/></mxCell><mxCell id="10" value="&lt;b&gt;&amp;nbsp; &amp;nbsp; &amp;nbsp; &amp;nbsp; &amp;nbsp; geting Array&amp;nbsp; &amp;nbsp; &amp;nbsp; &amp;nbsp; &amp;nbsp; &amp;nbsp;of Mans fields&lt;/b&gt;" style="whiteSpace=wrap;html=1;fillColor=#4D4D4D;rounded=1;fontColor=#ffffff;strokeColor=#FFFFFF;" vertex="1" parent="1"><mxGeometry x="58" y="-164" width="134" height="42" as="geometry"/></mxCell><mxCell id="15" value="&lt;b&gt;-Map&lt;/b&gt;" style="whiteSpace=wrap;html=1;fillColor=#008a00;rounded=1;fontColor=#ffffff;strokeColor=#005700;" vertex="1" parent="1"><mxGeometry x="-273" y="-105" width="86" height="20" as="geometry"/></mxCell><mxCell id="16" value="&lt;b&gt;&amp;nbsp; &amp;nbsp; -List&amp;lt;&amp;gt;&lt;/b&gt;" style="whiteSpace=wrap;html=1;fillColor=#008a00;rounded=1;fontColor=#ffffff;strokeColor=#005700;" vertex="1" parent="1"><mxGeometry x="-273" y="-85" width="86" height="20" as="geometry"/></mxCell><mxCell id="17" value="&lt;b&gt;-set&lt;/b&gt;" style="whiteSpace=wrap;html=1;fillColor=#008a00;rounded=1;fontColor=#ffffff;strokeColor=#005700;" vertex="1" parent="1"><mxGeometry x="-273" y="-65" width="86" height="20" as="geometry"/></mxCell><mxCell id="39" style="edgeStyle=orthogonalEdgeStyle;rounded=0;orthogonalLoop=1;jettySize=auto;html=1;exitX=0.75;exitY=1;exitDx=0;exitDy=0;entryX=0.25;entryY=0;entryDx=0;entryDy=0;" edge="1" parent="1" source="21" target="37"><mxGeometry relative="1" as="geometry"/></mxCell><mxCell id="21" value="&lt;b&gt;&amp;nbsp; &amp;nbsp; &amp;nbsp; &amp;nbsp; &amp;nbsp;iterating by&amp;nbsp; &amp;nbsp; &amp;nbsp; &amp;nbsp; &amp;nbsp; array fields&lt;/b&gt;" style="rounded=1;whiteSpace=wrap;html=1;fillColor=#4D4D4D;" vertex="1" parent="1"><mxGeometry x="67" y="-93" width="120" height="60" as="geometry"/></mxCell><mxCell id="25" style="edgeStyle=orthogonalEdgeStyle;rounded=0;orthogonalLoop=1;jettySize=auto;html=1;exitX=0;exitY=0.5;exitDx=0;exitDy=0;entryX=1;entryY=0.5;entryDx=0;entryDy=0;" edge="1" parent="1" source="23" target="24"><mxGeometry relative="1" as="geometry"/></mxCell><mxCell id="27" style="edgeStyle=orthogonalEdgeStyle;rounded=0;orthogonalLoop=1;jettySize=auto;html=1;exitX=1;exitY=0.5;exitDx=0;exitDy=0;entryX=0;entryY=0.5;entryDx=0;entryDy=0;" edge="1" parent="1" source="23" target="26"><mxGeometry relative="1" as="geometry"/></mxCell><mxCell id="23" value="&amp;nbsp; &amp;nbsp; &amp;nbsp; &amp;nbsp;if field == null&amp;nbsp; &amp;nbsp; &amp;nbsp; &amp;nbsp; &amp;nbsp; &amp;nbsp; &amp;nbsp; &amp;nbsp; &amp;nbsp; &amp;nbsp; &amp;nbsp; &amp;nbsp; &amp;nbsp; &amp;nbsp; &amp;nbsp; &amp;nbsp; &amp;nbsp; &amp;nbsp; &amp;nbsp; &amp;nbsp; &amp;nbsp; &amp;nbsp; &amp;nbsp; &amp;nbsp; &amp;nbsp; &amp;nbsp; &amp;nbsp; &amp;nbsp; &amp;nbsp; &amp;nbsp; &amp;nbsp; &amp;nbsp; &amp;nbsp; &amp;nbsp; &amp;nbsp; &amp;nbsp; &amp;nbsp; &amp;nbsp; &amp;nbsp; &amp;nbsp; else" style="rhombus;whiteSpace=wrap;html=1;strokeColor=#FFFFFF;fillColor=#4D4D4D;" vertex="1" parent="1"><mxGeometry x="-226" y="54" width="120" height="130" as="geometry"/></mxCell><mxCell id="24" value="&lt;b&gt;stringBuilder. append(&quot;null&quot;)&lt;/b&gt;" style="rounded=1;whiteSpace=wrap;html=1;strokeColor=#FFFFFF;fillColor=#4D4D4D;" vertex="1" parent="1"><mxGeometry x="-388" y="97" width="94" height="44" as="geometry"/></mxCell><mxCell id="26" value="jsonBuilder.append (getFIeldValueAsJSON)" style="rounded=1;whiteSpace=wrap;html=1;strokeColor=#FFFFFF;fillColor=#4D4D4D;" vertex="1" parent="1"><mxGeometry x="-45" y="93" width="138" height="52" as="geometry"/></mxCell><mxCell id="29" value="" style="endArrow=classic;html=1;rounded=0;exitX=0;exitY=1;exitDx=0;exitDy=0;entryX=0.5;entryY=0;entryDx=0;entryDy=0;" edge="1" parent="1" source="21" target="23"><mxGeometry width="50" height="50" relative="1" as="geometry"><mxPoint x="-194" y="41" as="sourcePoint"/><mxPoint x="-144" y="-9" as="targetPoint"/></mxGeometry></mxCell><mxCell id="34" value="" style="endArrow=classic;html=1;rounded=0;exitX=0.25;exitY=0;exitDx=0;exitDy=0;entryX=0;entryY=0.25;entryDx=0;entryDy=0;" edge="1" parent="1" source="24" target="21"><mxGeometry width="50" height="50" relative="1" as="geometry"><mxPoint x="-260" y="54" as="sourcePoint"/><mxPoint x="-210" y="4" as="targetPoint"/></mxGeometry></mxCell><mxCell id="36" value="" style="endArrow=classic;html=1;rounded=0;exitX=0.167;exitY=0;exitDx=0;exitDy=0;exitPerimeter=0;entryX=0.25;entryY=1;entryDx=0;entryDy=0;" edge="1" parent="1" source="26" target="21"><mxGeometry width="50" height="50" relative="1" as="geometry"><mxPoint x="-12" y="87" as="sourcePoint"/><mxPoint x="38" y="37" as="targetPoint"/></mxGeometry></mxCell><mxCell id="41" style="edgeStyle=orthogonalEdgeStyle;rounded=0;orthogonalLoop=1;jettySize=auto;html=1;exitX=0.75;exitY=1;exitDx=0;exitDy=0;entryX=0.628;entryY=0.011;entryDx=0;entryDy=0;entryPerimeter=0;" edge="1" parent="1" source="37" target="40"><mxGeometry relative="1" as="geometry"/></mxCell><mxCell id="37" value="string = jsonStringBuilder" style="shape=parallelogram;perimeter=parallelogramPerimeter;whiteSpace=wrap;html=1;fixedSize=1;strokeColor=#FFFFFF;fillColor=#4D4D4D;" vertex="1" parent="1"><mxGeometry x="127" y="33" width="120" height="44" as="geometry"/></mxCell><mxCell id="40" value="finish programm" style="ellipse;whiteSpace=wrap;html=1;aspect=fixed;strokeColor=#6F0000;fillColor=#a20025;fontColor=#ffffff;" vertex="1" parent="1"><mxGeometry x="172" y="122" width="72" height="72" as="geometry"/></mxCell></root></mxGraphModel></diagram></mxfile>